PathFileType	4	(X/Y/Z)	/Users/itak/Documents/Research/Walk-IL/dataset/trc/00092_00006.trc
DataRate	CameraRate	NumFrames	NumMarkers	Units	OrigDataRate	OrigDataStartFrame	OrigNumFrames
100.000000	100.000000	4	53	mm	100.000000	63	505
Frame#	Time	RPSI			LPSI			L3			STRN			T10			C7			CLAV			RBAK			LBAK			LSHO			LUPA			LAEL			LAOL			LWTS			LWPS			LFRA			LIFD			LHPS			LHTS			RSHO			RUPA			RAEL			RAOL			RWTS			RWPS			RFRA			RIFD			RHTS			RHPS			RBHD			LFHD			RFHD			LBHD			LHIP			RHIP			RASI			LASI			LKNE			LTHI			LANK			LTIP			LTOE			LMT1			LMT5			LHEE			RKNE			RTHI			RANK			RTIP			RTOE			RMT1			RMT5			RHEE			
		X1	Y1	Z1	X2	Y2	Z2	X3	Y3	Z3	X4	Y4	Z4	X5	Y5	Z5	X6	Y6	Z6	X7	Y7	Z7	X8	Y8	Z8	X9	Y9	Z9	X10	Y10	Z10	X11	Y11	Z11	X12	Y12	Z12	X13	Y13	Z13	X14	Y14	Z14	X15	Y15	Z15	X16	Y16	Z16	X17	Y17	Z17	X18	Y18	Z18	X19	Y19	Z19	X20	Y20	Z20	X21	Y21	Z21	X22	Y22	Z22	X23	Y23	Z23	X24	Y24	Z24	X25	Y25	Z25	X26	Y26	Z26	X27	Y27	Z27	X28	Y28	Z28	X29	Y29	Z29	X30	Y30	Z30	X31	Y31	Z31	X32	Y32	Z32	X33	Y33	Z33	X34	Y34	Z34	X35	Y35	Z35	X36	Y36	Z36	X37	Y37	Z37	X38	Y38	Z38	X39	Y39	Z39	X40	Y40	Z40	X41	Y41	Z41	X42	Y42	Z42	X43	Y43	Z43	X44	Y44	Z44	X45	Y45	Z45	X46	Y46	Z46	X47	Y47	Z47	X48	Y48	Z48	X49	Y49	Z49	X50	Y50	Z50	X51	Y51	Z51	X52	Y52	Z52	X53	Y53	Z53	

64	0.63	-1379.0751953125	1029.764526367188	94.92504119873047	-1403.2568359375	1020.828247070312	-80.09212493896484	-1390.190185546875	1086.401611328125	0.914150059223175	-1142.314453125	1285.972412109375	-9.901508331298828	-1409.01025390625	1221.04296875	-0.7906099557876587	-1349.821411132812	1487.73095703125	-4.585221290588379	-1171.7373046875	1400.592529296875	-9.616673469543457	-1410.2666015625	1348.555908203125	72.56015777587891	-1374.957153320312	1451.159545898438	-106.9817352294922	-1271.978515625	1455.747314453125	-182.1324310302734	-1291.215698242188	1329.430297851562	-260.366455078125	-1274.601318359375	1116.593017578125	-287.4844360351562	-1331.765502929688	1098.60791015625	-198.6232452392578	-1177.308715820312	877.3510131835938	-240.0279693603516	-1240.168701171875	866.4631958007812	-294.1847229003906	-1254.783813476562	1008.216857910156	-299.8293151855469	-1162.068115234375	691.512451171875	-224.6873168945312	-1204.213012695312	786.4992065429688	-295.3515319824219	-1149.945434570312	797.0508422851562	-250.6084594726562	-1280.256469726562	1447.942138671875	169.3559875488281	-1287.726318359375	1376.501098632812	233.9229431152344	-1304.37255859375	1107.776977539062	252.4578552246094	-1294.164916992188	1089.737182617188	152.4856567382812	-1166.5439453125	857.6823120117188	204.7987670898438	-1233.403930664062	842.8739013671875	259.1626586914062	-1290.114868164062	1030.287475585938	256.0732116699219	-1168.666259765625	672.8159790039062	183.0895843505859	-1139.559936523438	756.8009033203125	203.6954956054688	-1194.758422851562	754.2125854492188	260.8811950683594	-1328.053466796875	1645.563598632812	60.52156066894531	-1143.361083984375	1713.588134765625	-42.10933685302734	-1166.891967773438	1700.257568359375	80.84674835205078	-1312.006103515625	1665.961059570312	-75.13276672363281	-1302.03857421875	962.4732666015625	-177.3941345214844	-1303.581420898438	961.7960815429688	167.6878356933594	-1182.0361328125	982.0203857421875	134.6127777099609	-1187.009887695312	974.6688232421875	-132.3584289550781	-1198.472045898438	503.4100952148438	-136.2103881835938	-1240.542846679688	641.135498046875	-169.8115692138672	-1343.975463867188	53.20207595825195	-149.5402679443359	-1277.234985351562	264.3404541015625	-156.3270263671875	-1138.623413085938	47.41146087646484	-163.1255950927734	-1182.294067382812	46.70301818847656	-104.4012832641602	-1246.081909179688	43.33632278442383	-197.0360870361328	-1389.026611328125	50.72662734985352	-68.783447265625	-1215.923217773438	518.7349243164062	124.5059127807617	-1215.312866210938	788.8240356445312	162.5828399658203	-1328.994262695312	46.1583251953125	112.8357772827148	-1242.6884765625	395.3882141113281	128.5077209472656	-1115.16064453125	43.68561553955078	66.47631072998047	-1178.373291015625	48.33052444458008	29.17449760437012	-1204.793212890625	49.39267730712891	123.6729888916016	-1379.4765625	47.09508895874023	56.84930038452148	
65	0.64	-1378.982299804688	1029.816040039062	94.71005249023438	-1403.077514648438	1020.857116699219	-80.30170440673828	-1390.022338867188	1086.409057617188	0.7053300738334656	-1142.26513671875	1286.009887695312	-9.995941162109375	-1408.864013671875	1221.038696289062	-1.011560201644897	-1349.697631835938	1487.6865234375	-4.820140361785889	-1171.6015625	1400.598754882812	-9.78307056427002	-1410.206665039062	1348.553100585938	72.29875183105469	-1374.848266601562	1451.129638671875	-107.2672271728516	-1271.79638671875	1455.73095703125	-182.3547821044922	-1290.947631835938	1329.376220703125	-260.5196838378906	-1274.310791015625	1116.461181640625	-287.4804382324219	-1331.525756835938	1098.57080078125	-198.6416015625	-1176.753540039062	877.435791015625	-239.5161437988281	-1239.565307617188	866.3610229492188	-293.6990661621094	-1254.312377929688	1008.058532714844	-299.6018981933594	-1161.700439453125	691.6950073242188	-223.947265625	-1203.518798828125	786.4547729492188	-294.6900329589844	-1149.2880859375	797.0745849609375	-249.9843292236328	-1280.238525390625	1448.00146484375	169.04638671875	-1287.754150390625	1376.59423828125	233.7064056396484	-1304.3388671875	1107.874389648438	252.4006042480469	-1294.047485351562	1089.784790039062	152.5162048339844	-1166.237182617188	857.8330688476562	205.0285339355469	-1233.16259765625	843.00146484375	259.3246765136719	-1290.007934570312	1030.384155273438	256.0852966308594	-1168.379516601562	672.9615478515625	183.3345184326172	-1139.789672851562	756.9391479492188	204.2871704101562	-1194.482055664062	754.3668212890625	261.030029296875	-1327.9453125	1645.62890625	60.31681060791016	-1143.167846679688	1713.580322265625	-42.27719497680664	-1166.791259765625	1700.265502929688	80.64990234375	-1311.8486328125	1666.022338867188	-75.31620788574219	-1301.930053710938	962.472900390625	-177.6174011230469	-1303.50634765625	961.826416015625	167.5013732910156	-1181.9619140625	982.0384521484375	134.4736175537109	-1186.874145507812	974.6262817382812	-132.5237579345703	-1198.417114257812	503.3923645019531	-136.2724151611328	-1240.36962890625	641.0968627929688	-169.8627624511719	-1343.96875	53.20685958862305	-149.5372009277344	-1277.168823242188	264.3185729980469	-156.3248138427734	-1138.619262695312	47.40858459472656	-163.1173095703125	-1182.29248046875	46.70311737060547	-104.4002456665039	-1246.081298828125	43.34197235107422	-197.0273284912109	-1389.029296875	50.75105285644531	-68.78652191162109	-1216.010009765625	518.7625122070312	124.4995956420898	-1215.299194335938	788.8325805664062	162.4473724365234	-1329.0048828125	46.15186309814453	112.8372497558594	-1242.744995117188	395.3913269042969	128.4901885986328	-1115.163940429688	43.69009780883789	66.4766845703125	-1178.3720703125	48.33351898193359	29.16936111450195	-1204.799926757812	49.3929557800293	123.6819534301758	-1379.51513671875	47.11825561523438	56.84175109863281	
66	0.65	-1378.896484375	1029.880493164062	94.48196411132812	-1402.894653320312	1020.90234375	-80.52299499511719	-1389.834716796875	1086.417724609375	0.4884609878063202	-1142.207641601562	1286.058715820312	-10.09668827056885	-1408.711059570312	1221.036376953125	-1.241921782493591	-1349.5712890625	1487.651611328125	-5.069401264190674	-1171.460693359375	1400.605102539062	-9.953889846801758	-1410.141967773438	1348.554809570312	72.03669738769531	-1374.72802734375	1451.101318359375	-107.5576553344727	-1271.615844726562	1455.714477539062	-182.5874328613281	-1290.714233398438	1329.311767578125	-260.6841430664062	-1274.016845703125	1116.32470703125	-287.4638671875	-1331.2978515625	1098.53564453125	-198.6564483642578	-1176.195922851562	877.510986328125	-238.9639129638672	-1238.970092773438	866.2525634765625	-293.1859741210938	-1253.852783203125	1007.891845703125	-299.3632202148438	-1161.4267578125	691.8819580078125	-223.1850128173828	-1202.807983398438	786.404052734375	-293.9802551269531	-1148.658203125	797.1039428710938	-249.3148956298828	-1280.238159179688	1448.08251953125	168.7375335693359	-1287.769165039062	1376.691772460938	233.4905395507812	-1304.297241210938	1107.974243164062	252.3314971923828	-1293.912353515625	1089.824829101562	152.5337219238281	-1165.924072265625	857.9853515625	205.2164459228516	-1232.901489257812	843.1366577148438	259.4548034667969	-1289.891723632812	1030.480712890625	256.0786743164062	-1168.078735351562	673.1136474609375	183.5355072021484	-1139.916870117188	757.1198120117188	204.7837371826172	-1194.169555664062	754.5359497070312	261.1554260253906	-1327.838134765625	1645.69384765625	60.10374069213867	-1142.968872070312	1713.57861328125	-42.45475387573242	-1166.700439453125	1700.28076171875	80.44284820556641	-1311.67138671875	1666.0810546875	-75.52391052246094	-1301.803588867188	962.4794921875	-177.8472900390625	-1303.445678710938	961.8629760742188	167.304443359375	-1181.905029296875	982.052001953125	134.3303070068359	-1186.729125976562	974.577392578125	-132.68212890625	-1198.38037109375	503.3749389648438	-136.3315887451172	-1240.238159179688	641.0711059570312	-169.9184417724609	-1343.963500976562	53.20998764038086	-149.5344390869141	-1277.119384765625	264.3002624511719	-156.3257446289062	-1138.620849609375	47.40915679931641	-163.1100311279297	-1182.291137695312	46.70281600952148	-104.3992385864258	-1246.082641601562	43.34850311279297	-197.0191497802734	-1389.03271484375	50.77093124389648	-68.79064178466797	-1216.103637695312	518.7938842773438	124.4949340820312	-1215.293212890625	788.8408813476562	162.3125	-1329.018676757812	46.14281845092773	112.838493347168	-1242.799926757812	395.3959045410156	128.4732513427734	-1115.167602539062	43.69624328613281	66.47818756103516	-1178.373291015625	48.33817291259766	29.16581344604492	-1204.808471679688	49.39184951782227	123.6931304931641	-1379.550903320312	47.13564682006836	56.83793640136719	
67	0.66	-1378.822631835938	1029.957641601562	94.239013671875	-1402.708129882812	1020.963012695312	-80.75656890869141	-1389.633666992188	1086.427978515625	0.2615788280963898	-1142.133544921875	1286.118896484375	-10.21003437042236	-1408.547485351562	1221.036865234375	-1.480703234672546	-1349.444458007812	1487.630493164062	-5.335727214813232	-1171.315673828125	1400.613525390625	-10.12741470336914	-1410.06591796875	1348.562866210938	71.77392578125	-1374.594604492188	1451.076416015625	-107.8507385253906	-1271.438842773438	1455.697387695312	-182.8304290771484	-1290.515869140625	1329.23779296875	-260.8604125976562	-1273.721557617188	1116.187255859375	-287.4347839355469	-1331.084350585938	1098.503662109375	-198.6692199707031	-1175.641357421875	877.5752563476562	-238.3753204345703	-1238.378784179688	866.1396484375	-292.6485595703125	-1253.415893554688	1007.723815917969	-299.1195983886719	-1161.244384765625	692.0795288085938	-222.4054260253906	-1202.079711914062	786.3478393554688	-293.2263793945312	-1148.062866210938	797.1448974609375	-248.5859680175781	-1280.24609375	1448.17919921875	168.4330902099609	-1287.766845703125	1376.792724609375	233.2767486572266	-1304.246948242188	1108.076538085938	252.2510528564453	-1293.742309570312	1089.851806640625	152.5264892578125	-1165.600830078125	858.1441650390625	205.3589324951172	-1232.626831054688	843.2781372070312	259.5497131347656	-1289.768188476562	1030.576904296875	256.0538635253906	-1167.734375	673.2722778320312	183.6943359375	-1139.879638671875	757.3450927734375	205.1637420654297	-1193.821899414062	754.719970703125	261.2620849609375	-1327.729125976562	1645.755249023438	59.87943649291992	-1142.765502929688	1713.582641601562	-42.64122009277344	-1166.616455078125	1700.300170898438	80.22779083251953	-1311.478149414062	1666.136474609375	-75.75814056396484	-1301.658935546875	962.4930419921875	-178.0816345214844	-1303.4052734375	961.9055786132812	167.0963897705078	-1181.867553710938	982.05908203125	134.1847991943359	-1186.579223632812	974.525634765625	-132.8292083740234	-1198.36181640625	503.3582153320312	-136.3892364501953	-1240.158813476562	641.0618896484375	-169.9868469238281	-1343.9599609375	53.21177673339844	-149.5322265625	-1277.08642578125	264.2852172851562	-156.3321075439453	-1138.627075195312	47.41284561157227	-163.1050720214844	-1182.289672851562	46.70206069946289	-104.3982925415039	-1246.08544921875	43.35554885864258	-197.0125427246094	-1389.036254882812	50.78548812866211	-68.79493713378906	-1216.197265625	518.8278198242188	124.4904479980469	-1215.294311523438	788.8490600585938	162.1808471679688	-1329.035034179688	46.13150024414062	112.8398895263672	-1242.850708007812	395.4024353027344	128.4559020996094	-1115.1708984375	43.70362854003906	66.48122406005859	-1178.37548828125	48.34357070922852	29.16472625732422	-1204.8173828125	49.38943099975586	123.7051239013672	-1379.5791015625	47.14321136474609	56.83932495117188	
